# xmcd
#
# Track frame offsets:
#	150
#	16236
#	36483
#	52075
#	68092
#
# Disc length: 1127 seconds
#
# Revision: 0
# Processed by: cddbd v1.5.2PL0 Copyright (c) Steve Scherf et al.
# Submitted via: audiograbber 1.83.01
#
DISCID=40046505
DTITLE=Lady Antebellum - Live: In The Round
DYEAR=2020
DGENRE=Country
TTITLE0=What If I Never Get Over You
TTITLE1=Be Patient With My Love
TTITLE2=What I'm Leaving For
TTITLE3=Boots
TTITLE4=Ocean
EXTD=
EXTT0=
EXTT1=
EXTT2=
EXTT3=
EXTT4=
PLAYORDER=
